<svg width="137" height="60" viewBox="0 0 137 60" fill="none" xmlns="http://www.w3.org/2000/svg">
<path d="M50.2917 32.8748L49.0227 33.0468L50.2917 32.7827V32.8748ZM50.2917 30.7218V28.3212H56.1925L56.4334 23.7267H50.2917V20.946H56.1925L56.4334 16.3516H50.2917C47.0803 16.3516 45.4746 17.8827 45.4746 20.946V31.824L50.2917 30.7218ZM62.3337 28.6831V16.3516H57.5167V28.6831C57.5167 31.7465 59.1224 33.2776 62.3337 33.2776H67.271L67.03 28.6831H62.3337ZM80.3974 20.946V28.6831C80.3974 31.7465 78.7917 33.2776 75.5804 33.2776H73.1718C69.9605 33.2776 68.3553 31.7465 68.3553 28.6831V20.946C68.3553 17.8827 69.961 16.3516 73.1718 16.3516H75.5804C78.7917 16.3516 80.3974 17.8827 80.3974 20.946ZM75.5804 20.946H73.1718V28.6831H75.5804V20.946ZM93.644 20.946V28.6831C93.644 31.7465 92.0378 33.2776 88.827 33.2776H86.4184C83.2076 33.2776 81.6014 31.7465 81.6014 28.6831V20.946C81.6014 17.8827 83.2076 16.3516 86.4184 16.3516H88.827C92.0383 16.3516 93.644 17.8827 93.644 20.946ZM88.827 20.946H86.4184V28.6831H88.827V20.946ZM106.891 20.946C106.891 22.6625 106.481 23.9447 105.663 24.7904C106.481 25.5964 106.891 26.8145 106.891 28.4424V33.2781H102.074V27.1118H99.6656V33.2781H94.8486V16.3516H102.074C105.285 16.3516 106.891 17.8827 106.891 20.946ZM102.074 20.946H99.6656V22.5168H102.074V20.946ZM108.095 33.2776H112.912V16.3516H108.095V33.2776ZM120.137 16.3516H118.933C115.723 16.3516 114.116 17.8827 114.116 20.946V33.2776H118.933V20.946H120.137V33.2776H124.955V20.946C124.955 17.8827 123.349 16.3516 120.137 16.3516ZM132.18 22.6386V28.6831H130.976V20.946H135.672L135.913 16.3516H130.976C127.765 16.3516 126.159 17.8827 126.159 20.946V28.6831C126.159 31.7465 127.765 33.2776 130.976 33.2776H136.997V22.3961L132.18 22.6386Z" fill="#2D2D2D"/>
<path d="M62.494 35.0123H67.0028V46.5553C67.0028 49.4216 65.4998 50.8548 62.494 50.8548H61.3672C58.3613 50.8548 56.8584 49.4216 56.8584 46.5553V35.0123H61.3672V46.5553H62.494V35.0123ZM50.096 39.3118V40.7835H51.2228C54.2281 40.7835 55.7316 42.2167 55.7316 45.083V46.5547C55.7316 49.4211 54.2287 50.8542 51.2228 50.8542H45.4746L45.6998 46.5547H51.2228V45.083H50.096C47.0902 45.083 45.5872 43.6499 45.5872 40.7835V39.3118C45.5872 39.3072 45.5872 39.3025 45.5872 39.2984C45.6476 39.2734 45.7074 39.2483 45.7666 39.2233C45.8287 39.1982 45.8908 39.172 45.9529 39.1457C46.0859 39.0898 46.2252 39.0432 46.3593 38.9965C46.4893 38.9522 46.6234 38.9056 46.7529 38.8532C47.1076 38.7075 47.4385 38.5343 47.716 38.3851C47.7322 38.3758 47.7508 38.3671 47.7711 38.3554C47.9325 38.2721 48.2018 38.131 48.2129 37.9375C48.214 37.9101 48.2123 37.8862 48.2059 37.8635C48.1972 37.8326 48.1867 37.8023 48.1722 37.7656C48.0515 37.4596 47.7862 37.2842 47.4443 37.2842C47.255 37.2842 47.0501 37.3401 46.8678 37.4415C46.6327 37.5715 46.4493 37.7638 46.2722 37.9492C46.1817 38.0436 46.0876 38.1427 45.9872 38.2313C45.9779 38.2406 45.9663 38.2447 45.9541 38.2447C45.9355 38.2447 45.917 38.233 45.9077 38.2185C45.9024 38.208 45.8984 38.1922 45.9106 38.173C45.9553 38.1001 46.0017 38.0285 46.0493 37.9603L46.0615 37.9422C46.0615 37.9422 46.0209 37.9422 46.011 37.941C45.9982 37.941 45.9855 37.941 45.9721 37.941C45.9437 37.941 45.9222 37.9422 45.9013 37.9469C45.8293 37.9638 45.7678 37.9865 45.7097 38.0139C45.7196 37.9649 45.7295 37.9171 45.7411 37.8705C45.8212 37.8361 45.9106 37.8081 45.9901 37.8081C46.0418 37.8081 46.0841 37.8204 46.1161 37.8443L46.1254 37.8513L46.1323 37.8419C46.3854 37.4992 46.6461 37.2708 46.9537 37.1216C47.1203 37.0406 47.2916 36.9998 47.4623 36.9998C47.8146 36.9998 48.1374 37.1816 48.3481 37.4981C48.3539 37.5074 48.3597 37.5161 48.365 37.5243L48.3742 37.54L48.3841 37.5255C48.4137 37.4788 48.4416 37.4299 48.4695 37.3809C48.5043 37.3215 48.5397 37.2591 48.5792 37.1997C48.6912 37.0301 48.8567 36.8966 49.0157 36.7672L49.0906 36.7066C49.4209 36.4402 49.9207 36.0375 49.7309 35.5532C49.6299 35.2973 49.3681 35.1219 49.0291 35.0799C49.3605 35.0344 49.7164 35.0117 50.0955 35.0117H55.8436L55.6184 39.3113L50.096 39.3118ZM50.0978 36.1803C50.1744 36.1803 50.2522 36.196 50.334 36.2293C50.3596 36.2409 50.3869 36.252 50.4147 36.2648C50.5134 36.3091 50.6255 36.3604 50.7329 36.3604C50.7909 36.3604 50.8408 36.3458 50.8867 36.3173C51.0202 36.2322 51.1131 36.1133 51.1479 35.9816C51.2333 35.6581 51.0759 35.3439 50.694 35.0741L50.6899 35.0706L50.6673 35.0752L50.6661 35.0834C50.6498 35.211 50.6034 35.3113 50.5279 35.3841C50.4519 35.457 50.3607 35.5118 50.2731 35.5642C50.1901 35.6132 50.1042 35.6645 50.031 35.7315L50.027 35.735V35.7408C50.0281 35.8889 49.9892 36.0404 49.9103 36.1902L49.8981 36.2141L49.923 36.2071C49.9852 36.189 50.042 36.1803 50.0978 36.1803ZM79.4007 39.3118C79.4007 40.9193 79.0175 42.1188 78.2513 42.9114C79.0175 43.665 79.4007 44.8045 79.4007 46.3286V50.8548H74.8919V45.0836H72.6378V50.8548H68.1289V35.0123H74.8913C77.8977 35.0123 79.4007 36.4455 79.4007 39.3118ZM74.8925 39.3118H72.6383V40.7835H74.8925V39.3118ZM114.342 39.3118V46.5553C114.342 49.4216 112.839 50.8548 109.833 50.8548H107.579C104.573 50.8548 103.07 49.4216 103.07 46.5553V39.3118C103.07 36.4455 104.573 35.0123 107.579 35.0123H109.833C112.839 35.0123 114.342 36.4455 114.342 39.3118ZM109.833 39.3118H107.579V46.5553H109.833V39.3118ZM121.104 35.0123H119.978C116.972 35.0123 115.469 36.4455 115.469 39.3118V50.8548H119.978V39.3118H121.104V50.8548H125.613V39.3118C125.613 36.4455 124.11 35.0123 121.104 35.0123ZM86.1642 46.5547H85.0368V39.3118H89.4324L89.6583 35.0123H85.0368C82.031 35.0123 80.528 36.4455 80.528 39.3118V46.5553C80.528 49.4216 82.031 50.8548 85.0368 50.8548H90.6724V40.6698L86.1642 40.8966V46.5547ZM132.376 40.7835H131.249V39.3118H136.772L136.997 35.0123H131.249C128.243 35.0123 126.74 36.4455 126.74 39.3118V40.7835C126.74 43.6499 128.243 45.083 131.249 45.083H132.376V46.5547H126.853L126.627 50.8542H132.375C135.381 50.8542 136.884 49.4211 136.884 46.5547V45.083C136.884 42.2167 135.381 40.7835 132.376 40.7835ZM101.831 45.083L102.056 40.7835H96.308V39.3118H100.704L100.929 35.0123H96.308C93.3021 35.0123 91.7992 36.4455 91.7992 39.3118V46.5553C91.7992 49.4216 93.3021 50.8548 96.308 50.8548H101.832L102.057 46.5553H96.3086V45.0836L101.831 45.083Z" fill="#389382"/>
<path d="M1.36442 43.1876L6.64183 41.7521L6.63951 41.769C6.58436 42.1368 6.54546 42.494 6.5147 42.7948C6.46826 43.2465 6.43052 43.8433 6.55243 44.4454L6.55417 44.457L1.89675 45.5248L1.75859 44.9169L2.53589 44.2909H1.61578L1.36442 43.1876ZM1.22742 42.5832L6.70685 41.3686L6.70801 41.3604C6.75445 41.1087 6.80379 40.886 6.85836 40.6774L6.863 40.6593L1.08984 41.9829L1.22742 42.5832ZM12.9874 39.2704C13.0808 39.4254 13.1493 39.5787 13.1964 39.7396C13.2103 39.7874 13.2242 39.8398 13.2399 39.908L13.2498 39.957L13.2538 39.9663C13.2712 40.0462 13.2875 40.1254 13.3026 40.2041C13.3606 40.4979 13.4146 40.7764 13.5534 40.9758C13.6822 41.1623 13.8419 41.2048 14.1374 41.2684C14.3429 41.3126 14.6 41.3674 14.8345 41.5242C15.1579 41.7393 15.3518 42.0569 15.3808 42.42L15.3814 42.4328L34.3373 38.0972C34.3663 38.0838 34.3959 38.0721 34.4255 38.0663C34.4482 38.0616 34.472 38.0593 34.4958 38.0593H34.5051L59.673 32.3027L59.5186 31.6266L49.023 33.0475L59.3526 30.8963L59.2046 30.2464L54.2801 30.8293L59.0571 29.6001L58.8667 28.762L12.9792 39.257L12.9874 39.2704Z" fill="#BD8758"/>
<path d="M13.2871 31.3324C13.4781 31.7264 13.8049 32.1519 14.2577 32.5972C14.4406 32.7773 14.6478 32.9638 14.8731 33.1514C15.3961 33.5874 16.0457 34.0566 16.805 34.545C18.2011 35.4431 19.6988 36.2329 20.7095 36.7376L20.7379 36.751L20.0791 36.9025L20.075 36.899C20.057 36.8856 20.039 36.874 20.0216 36.8647C17.3205 35.4973 15.5813 34.1143 14.7854 33.412C14.5346 33.1911 14.3065 32.976 14.1079 32.7732C13.7277 32.385 13.4642 32.0528 13.3852 31.8605C13.3092 31.6728 13.2685 31.4974 13.2656 31.3371L13.2871 31.3324ZM31.053 34.3911C31.3189 34.1667 31.8425 33.7069 32.3632 33.1444C32.4102 33.0943 32.4567 33.043 32.5025 32.9906C32.7167 32.7516 32.9077 32.5162 33.0708 32.2918C33.2369 32.0639 33.3762 31.843 33.4853 31.6372C33.6333 31.3563 33.7303 31.0917 33.7727 30.8539C33.7761 30.8324 33.7825 30.812 33.7901 30.7916C33.8377 30.6651 33.8284 30.5025 33.7634 30.3066L33.7413 30.3101C33.739 30.3737 33.732 30.4401 33.721 30.5071C33.6746 30.7869 33.5434 31.1045 33.3315 31.4507C33.2102 31.6489 33.0598 31.8605 32.8845 32.0779C32.5014 32.5558 31.9853 33.0862 31.3502 33.6544C31.0245 33.9458 30.6716 34.2442 30.3001 34.5409L30.3099 34.5613L31.053 34.3911Z" fill="#C9C9C9"/>
<path d="M26.9301 8.73641L26.9138 8.71484L26.9869 8.723C28.8597 8.9369 31.6902 9.25921 34.057 10.2553C35.3335 10.7938 36.3343 11.4734 37.0321 12.2771C37.8378 13.205 38.2668 14.3339 38.3074 15.633C38.3063 15.7106 38.2825 16.4059 37.8546 17.1752C37.2498 18.2645 36.1636 18.9342 34.6253 19.1638L34.5852 19.1726C34.5759 19.1749 33.5763 19.4366 31.9938 19.4366C30.4712 19.4366 28.97 19.1976 27.5315 18.725C27.4955 18.7127 27.4583 18.7069 27.4212 18.7069C27.2673 18.7069 27.1315 18.806 27.0833 18.9529C27.0537 19.0438 27.0613 19.1405 27.1042 19.225C27.1472 19.3101 27.2203 19.3731 27.3103 19.4028C28.7813 19.8866 30.3057 20.1395 31.8412 20.1564H31.8545L31.8522 20.1698C31.7843 20.5032 31.6322 21.3343 31.6821 21.8361C31.6937 21.9486 31.7581 22.05 31.8557 22.1083L31.8731 22.1188L31.8551 22.1281C31.6124 22.2593 31.0064 22.4778 29.6764 22.4778C29.1424 22.4778 28.5369 22.4423 27.8769 22.3717C26.8685 22.2488 25.7563 21.9504 24.5703 21.4858L24.5674 21.4847L24.5656 21.4823C22.7585 19.1318 23.0029 17.6188 23.3088 16.9269C23.3367 16.8937 23.3524 16.8646 23.3547 16.8372L23.3553 16.8279L23.3652 16.8267C23.4395 16.8209 23.5161 16.8185 23.5927 16.8185C24.5076 16.8185 25.2489 17.2306 25.2988 17.2591C25.4747 17.2591 25.5821 17.2183 25.6198 17.1385C25.6907 16.9858 25.4869 16.7387 25.4846 16.7369C25.477 16.7334 24.4292 16.1279 23.2938 16.1279C23.0575 16.1279 22.8305 16.1541 22.6198 16.2066C21.655 16.4432 20.9961 17.5418 21.0391 17.8991C21.046 17.9597 21.075 17.99 21.125 17.99C21.1761 17.99 21.2742 17.958 21.4535 17.8058C21.8483 17.3629 22.3121 17.0651 22.8299 16.9199L22.8694 16.9083L22.841 16.938C22.7945 16.987 22.751 17.0441 22.7109 17.1064C22.4381 17.5412 22.1641 19.2262 23.1062 20.8232L23.1254 20.8552L23.0917 20.8395C19.557 19.1423 16.2655 16.5388 14.6181 15.1388L14.6134 15.1341L14.614 15.1283C14.8299 13.5302 15.061 12.519 15.2049 12.1058L15.2067 12.1011L15.2119 12.0988C16.197 11.7403 19.0682 10.3858 21.3038 9.31341L21.3328 9.29884L21.3189 9.32856C21.0965 9.78609 20.9839 10.2768 20.9839 10.788C20.9839 12.023 21.6614 13.1537 22.751 13.7365L22.7812 13.7523L22.7469 13.7581C22.4659 13.7977 22.2094 13.8548 21.9847 13.9277C21.9818 13.9277 21.8407 13.9527 21.7891 14.0448C21.7635 14.0891 21.7629 14.1439 21.7868 14.2051C21.832 14.3234 21.9626 14.5968 22.196 14.5968C22.2372 14.5968 22.2802 14.5875 22.3231 14.5705C22.5356 14.486 24.3851 14.2436 25.5786 14.2436C25.8799 14.2436 26.1139 14.2593 26.2735 14.2914C26.2903 14.2925 26.3077 14.2937 26.324 14.2937C26.4082 14.2937 26.472 14.2675 26.5133 14.2162C26.5916 14.1206 26.5707 13.9609 26.5643 13.9259C26.5138 13.9154 26.2137 13.8601 25.7789 13.8041L25.7418 13.7995L25.7754 13.7837C26.9225 13.2155 27.6348 12.0673 27.6348 10.7874C27.6348 10.0373 27.3916 9.32798 26.9301 8.73641ZM23.0877 32.868C22.6273 32.7176 22.1641 32.5392 21.7119 32.3376C21.4901 32.2397 21.2649 32.1359 21.0414 32.0316C17.5955 30.4171 15.4935 28.7555 14.3371 27.6458L14.3156 27.6254L14.3179 27.6551C14.4509 29.2521 14.6517 30.7925 14.9159 32.2327L14.9164 32.2373L14.9188 32.2397C14.964 32.2816 15.0099 32.323 15.0563 32.365L15.0587 32.3673H15.0621C16.042 32.4856 19.5175 32.8738 23.083 32.8918L23.0877 32.868ZM13.7664 22.1747C13.803 22.1882 13.8396 22.2021 13.8779 22.2144C14.12 22.2966 14.3661 22.3374 14.6105 22.3374C14.9333 22.3374 15.238 22.2633 15.4906 22.1235C15.5434 22.0949 15.6026 22.0792 15.6618 22.0792C15.7913 22.0792 15.9108 22.1497 15.9735 22.2633C16.0682 22.4364 16.0055 22.6538 15.8336 22.7483C15.4772 22.9452 15.0534 23.0502 14.6088 23.0502C14.4561 23.0502 14.297 23.0368 14.1368 23.0105L14.124 23.0082V23.0216C14.1246 23.5485 14.1327 24.0573 14.1496 24.6256V24.6302L14.1531 24.6337C15.1869 25.5056 20.4539 29.8675 22.5954 30.0978H22.6041L22.607 30.0896C23.0209 29.0049 23.0743 27.2209 22.7626 24.9327C22.7109 24.5527 22.6482 24.1552 22.5768 23.7501L22.5762 23.7455L22.5722 23.7431C18.8813 21.2947 15.8528 18.7518 14.3766 17.4526L14.3597 17.4381L14.358 17.4608C14.3261 17.8251 14.297 18.1975 14.2715 18.5682L14.2709 18.5787L14.2819 18.5798C14.5559 18.6084 14.8265 18.6731 15.0865 18.7745C15.5678 18.9633 15.9869 19.2629 16.298 19.6406C16.4229 19.7921 16.402 20.0171 16.251 20.1424C16.1872 20.1949 16.1071 20.2246 16.0246 20.2246C15.9184 20.2246 15.8185 20.1768 15.7506 20.0946C15.5161 19.8102 15.1968 19.5835 14.8282 19.4389C14.5507 19.3305 14.2663 19.2763 13.9824 19.2763C13.9644 19.2763 13.947 19.2763 13.9284 19.2763C13.9174 19.2775 13.9058 19.2787 13.8907 19.2787C13.8895 19.2787 13.8884 19.2787 13.8866 19.2787C13.244 19.3084 12.7268 19.6295 12.5369 20.1185C12.4005 20.4705 12.444 20.8733 12.6606 21.2533C12.891 21.6589 13.2835 21.9853 13.7664 22.1747Z" fill="#E8D6B8"/>
<path d="M24.9762 41.653C24.484 42.1653 24.0283 42.8175 24.0283 44.1096C24.0283 44.4104 24.0689 44.7006 24.1496 44.9722L24.1537 44.9856L24.1392 44.9868C22.9781 45.0288 21.8461 45.0492 20.7751 45.0492C17.836 45.0492 15.2231 44.8901 13.0102 44.5759L13.0004 44.5747V44.5642C13.0021 44.3993 13.0056 44.2262 13.0108 44.0374V44.0205L13.0259 44.0275C13.2622 44.1219 13.4973 44.1697 13.7243 44.1697C13.8264 44.1697 13.9286 44.1592 14.0267 44.1399C14.4981 44.0479 14.9607 43.6824 15.2051 43.2086L15.2075 43.2039L25.7054 40.7962V41.3027L25.6961 41.3051C25.3733 41.3756 25.1307 41.4927 24.9762 41.653ZM19.3987 48.8714C19.4452 48.6744 19.4817 48.5193 19.4922 48.3923C19.5369 48.0385 19.473 47.7483 19.3012 47.5303C19.0847 47.2569 18.6893 47.0885 18.1257 47.0296L18.1141 47.0285L18.1129 47.0401C18.1071 47.1048 18.1019 47.1689 18.0978 47.2301L18.0972 47.2406L18.1077 47.2418C18.9541 47.3444 19.0911 47.5728 19.2368 47.813L19.2443 47.8264C19.289 47.9004 19.2925 47.9744 19.2548 48.0414C19.1677 48.1976 18.8768 48.2862 18.4566 48.2862C18.1675 48.2862 17.8174 48.2466 17.4163 48.1667C16.8033 48.0426 16.2605 47.9791 15.8031 47.9791C15.3311 47.9791 14.9514 48.0449 14.6751 48.1749C14.6084 48.2093 14.5544 48.2262 14.5178 48.2262C14.4812 48.2262 14.4749 48.2093 14.4731 48.2034C14.4516 48.1388 14.5712 47.9622 14.8005 47.7914C15.0072 47.6375 15.3996 47.4807 15.8507 47.37L15.8588 47.3677L15.8681 47.1899L15.8536 47.1922C15.2492 47.3333 14.4801 47.6259 14.2461 48.2192C14.1991 48.3293 14.2856 48.5345 14.4168 48.8451C14.5288 49.1092 14.6682 49.4396 14.7837 49.847C15.1523 50.874 15.1419 51.5332 15.0914 51.993L15.0902 52.0047L15.1018 52.0058C15.9337 52.0868 17.1133 52.3952 18.0072 53.4093L18.0136 53.4035L18.0084 53.4105C18.038 53.4332 18.056 53.4489 18.067 53.4594C18.0415 53.4472 17.9939 53.4209 17.9138 53.3697C17.8795 53.3481 17.8412 53.3265 17.7994 53.3026C17.6711 53.2502 17.5452 53.1989 17.4215 53.1476C17.1493 53.0351 16.8921 52.9279 16.6384 52.8335C16.1212 52.6697 15.626 52.5566 15.2806 52.5251C15.1854 52.5135 15.0902 52.5082 14.9973 52.5082C14.7727 52.5082 14.5579 52.5403 14.3576 52.6015C14.2688 52.6493 14.1463 52.7402 14.065 52.9034L14.0563 52.9215L14.076 52.9203C14.3053 52.9046 14.5428 52.8976 14.8023 52.8976C15.5552 52.9092 16.3917 53.1569 16.7104 53.2618C16.4817 53.2263 15.9923 53.1628 15.4077 53.1628C14.5886 53.1628 13.4398 53.2892 12.619 53.8913C12.1145 54.3092 11.765 54.7778 11.5799 55.2848C11.4492 55.6479 11.4678 55.9405 11.6362 56.1818C12.0152 56.7239 13.189 56.9879 15.2243 56.9879C15.6208 56.9879 16.0573 56.9774 16.5217 56.9582C18.7561 56.8661 19.8254 56.5781 20.2132 55.9633C20.5801 55.3816 20.3328 54.5097 19.7807 53.2006C18.8838 51.0471 19.206 49.6856 19.3987 48.8714ZM15.1047 11.3668L15.1093 11.3761L15.1192 11.3726C17.0639 10.619 24.5763 6.93434 24.895 6.77697C24.9443 6.75308 24.9966 6.74084 25.0511 6.74084C25.1881 6.74084 25.3106 6.81719 25.3704 6.94133C25.4122 7.02642 25.418 7.12317 25.3872 7.21351C25.3565 7.30327 25.2926 7.37612 25.2073 7.41867L24.9971 7.52241L25.0285 7.52941C25.371 7.60576 25.6972 7.73573 25.9991 7.91408L26.0136 7.9234L26.0159 7.9065C26.0235 7.85521 26.0409 7.80742 26.0682 7.76545C26.6644 6.83292 24.7185 4.35589 23.5557 2.87492C23.0159 2.18834 22.5503 1.5956 22.3326 1.19112C22.2838 1.1002 22.1422 1.06115 22.0319 1.04425C21.9588 1.03259 21.8769 1.02734 21.7893 1.02734C20.9905 1.02734 19.5497 1.50527 17.9341 2.30666C16.3783 3.07716 14.9503 4.00736 14.2072 4.73124C13.614 5.3094 13.4909 6.38764 13.8409 7.93448C14.1904 9.47898 14.8969 10.9524 15.1047 11.3668ZM34.5628 52.2809C34.0751 52.2809 33.721 52.2932 33.4784 52.3182C32.7916 52.408 31.727 52.8235 31.3444 53.0602C31.305 53.0876 31.2701 53.1126 31.2405 53.1365C31.41 52.433 32.8857 51.8887 33.5051 51.8357L33.5254 51.8333L33.5132 51.8176C33.2386 51.4399 31.7194 51.3898 31.6567 51.3875L31.5598 51.3705C31.3676 51.3536 31.2452 51.3309 31.1743 51.3012C31.1476 51.2895 31.1302 51.282 31.1186 51.2761C31.1453 51.2773 31.19 51.282 31.2492 51.2878C31.3212 51.2959 31.4199 51.3059 31.5377 51.314C31.8199 51.3024 32.2651 51.2721 32.7841 51.1957C32.9234 51.1753 33.0534 51.1636 33.1701 51.1636C33.1945 51.1636 33.2183 51.1648 33.2409 51.166H33.2526V51.1543C33.2531 51.0506 33.2531 50.948 33.2531 50.8472C33.2531 50.3739 33.2537 49.9263 33.3245 49.4507C33.3605 49.2059 33.4163 48.9611 33.4702 48.7257C33.5184 48.5129 33.5684 48.2944 33.6043 48.0746C33.6543 47.7535 33.6171 47.5204 33.4894 47.3607C33.292 47.1147 32.9037 47.0728 32.4538 47.0454L32.4416 47.0442V47.1876L32.4515 47.1887C32.9948 47.2424 33.2241 47.3356 33.3211 47.405C33.3518 47.4254 33.3605 47.4708 33.3443 47.5244C33.3031 47.662 33.0767 47.8945 32.4904 47.8945C32.2309 47.8945 31.9302 47.8479 31.5958 47.757C30.8046 47.5396 30.1283 47.4294 29.5849 47.4294C29.4479 47.4294 29.3498 47.4376 29.2854 47.4417C29.254 47.444 29.2308 47.4452 29.2145 47.4452C29.1408 47.4452 29.0932 47.4213 29.0915 47.4055C29.0909 47.3951 29.1095 47.3747 29.1867 47.3613L29.2308 47.3531C29.3661 47.328 29.683 47.268 30.1364 47.219L30.1468 47.2179L30.1445 47.0827L30.1323 47.0838C29.9257 47.0996 29.7057 47.12 29.4798 47.1421C28.9057 47.2027 28.8175 47.2581 28.8715 47.8841C29.0195 49.6623 28.9504 51.2604 28.6596 52.7699L28.6433 52.8574C28.5278 53.4734 28.4082 54.1081 28.3792 54.7411C28.3565 55.546 28.4535 55.6689 29.2441 55.8409C30.332 56.0559 31.4094 56.0857 32.3197 56.0857C32.7104 56.0857 33.108 56.0787 33.4923 56.0734L33.7756 56.0688C34.4002 56.0688 35.0266 56.1294 35.6321 56.1871C36.1917 56.2419 36.7704 56.2972 37.3422 56.3042C38.1288 56.2972 38.5572 56.1381 38.7169 55.2913C38.8115 54.5831 38.5758 53.9478 38.0162 53.4029C37.0601 52.5799 35.6112 52.3386 34.5628 52.2809ZM17.1887 33.9433C19.0022 35.1101 20.9992 36.0934 21.7736 36.4635C21.7927 36.4728 21.8113 36.4827 21.8305 36.4979L21.8345 36.5002L28.7356 34.9213L28.7379 34.9155C28.7623 34.845 28.807 34.7832 28.868 34.74C29.4961 34.2924 30.8225 33.2602 31.81 32.2257L31.7961 32.2088C31.5807 32.3306 31.3433 32.4466 31.0884 32.5515C30.5503 32.7951 29.9901 32.9933 29.4235 33.1402C28.5557 33.3657 27.6611 33.4794 26.7648 33.4794C26.7352 33.4794 26.7062 33.4794 26.6771 33.4782L26.6266 33.4771C25.6107 33.5656 24.4799 33.6105 23.2643 33.6105C20.5336 33.6105 17.8888 33.3931 16.1508 33.2095L16.109 33.2049L16.1432 33.2299C16.4683 33.4666 16.8201 33.7067 17.1887 33.9433ZM28.825 44.7222L28.8436 44.721C29.1478 44.7018 29.4525 44.6849 29.7498 44.6686C31.0582 44.5957 32.2936 44.5287 33.4917 44.2757C34.7352 44.0152 34.608 43.0705 34.6022 43.0302C34.5999 43.0122 34.5982 42.9941 34.5982 42.9766C34.5993 41.614 34.4722 40.2286 34.2191 38.8572L34.2168 38.8455L26.694 40.5701V41.2439L26.7062 41.2427C26.7555 41.2392 26.7967 41.2369 26.8362 41.2369C27.6216 41.2369 28.3461 41.8185 28.6834 42.7213C28.8982 43.0355 29.016 43.4353 29.016 43.8474C29.016 44.1469 28.9527 44.4424 28.8331 44.7047L28.825 44.7222ZM18.9912 37.1308C17.05 36.0846 15.6666 35.0705 14.8475 34.4032C14.7547 34.328 14.6647 34.2528 14.577 34.1788L14.5637 34.1671L14.559 34.184C14.3019 35.1218 13.9298 36.6098 13.6174 38.3629L13.6145 38.3798L19.0179 37.1436L18.9912 37.1308ZM23.1447 30.6352C23.0728 30.7879 22.9927 30.9289 22.9073 31.0554C22.7088 31.348 22.469 31.5823 22.1956 31.7507L22.177 31.7624L22.1974 31.7705C23.7032 32.4128 25.216 32.7438 26.6934 32.7561H26.6946C28.3745 32.6069 29.7283 32.3312 30.7192 31.9366C31.5981 31.5473 32.1949 31.123 32.4729 30.9033C32.4898 30.8864 32.5089 30.8712 32.5298 30.8578C32.6599 30.7529 32.7696 30.6527 32.8387 30.5769L32.8421 30.5734L32.8416 30.5676C32.7487 29.8559 32.5142 27.2402 32.1426 22.7949L32.1409 22.778L32.1264 22.7862C31.5877 23.0537 30.7575 23.1889 29.6592 23.1889C29.0984 23.1889 28.4715 23.1528 27.7964 23.0805C26.3114 22.8992 24.6512 22.377 22.8609 21.5267L22.8394 21.5162L22.8446 21.5389C22.9857 22.1264 23.1192 22.7547 23.2318 23.3591C23.2852 23.4401 23.3032 23.5404 23.2817 23.6389C23.6689 25.8367 23.9633 28.8249 23.1709 30.5792C23.1639 30.5979 23.1552 30.6171 23.1447 30.6352Z" fill="#389382"/>
<path d="M27.3278 45.5834L27.3649 45.5857L27.3324 45.6038C27.1722 45.697 27.005 45.7448 26.8361 45.7448C26.1 45.7448 25.5021 44.8933 25.5021 43.8483C25.5021 42.8021 26.1006 41.9517 26.8361 41.9517C27.005 41.9517 27.1722 41.9984 27.3324 42.0916L27.3649 42.1109L27.3278 42.1132C26.5888 42.161 26.01 42.9227 26.01 43.8483C26.01 44.7726 26.5888 45.5356 27.3278 45.5834ZM27.8555 42.8889C27.8508 42.8854 27.8468 42.8831 27.8427 42.8808C27.834 42.8761 27.8259 42.8715 27.8166 42.8685C27.8015 42.8615 27.7864 42.8551 27.7707 42.8505L27.7545 42.8446C27.7365 42.8388 27.7179 42.8341 27.6993 42.8312L27.6883 42.8295C27.6651 42.826 27.6447 42.8248 27.6262 42.8248C27.6059 42.8248 27.585 42.826 27.5623 42.8295C27.5472 42.8318 27.5327 42.8353 27.5176 42.84L27.5101 42.8411C27.506 42.8423 27.5019 42.8435 27.4979 42.8446C27.4793 42.8505 27.4607 42.8569 27.4375 42.8674C27.196 42.9775 27.0079 43.2888 26.958 43.6641C26.9545 43.6927 26.9516 43.7224 26.9493 43.7515C26.947 43.7836 26.9458 43.8151 26.9458 43.8483C26.9458 43.8803 26.947 43.913 26.9493 43.945C26.951 43.9748 26.9539 44.0033 26.9586 44.0371C27.0079 44.4072 27.196 44.719 27.4427 44.8303C27.4607 44.8397 27.4787 44.8461 27.4979 44.8519C27.5019 44.8531 27.506 44.8542 27.5101 44.8542L27.5176 44.8566C27.5321 44.8601 27.5466 44.8636 27.5623 44.8659C27.585 44.8706 27.6059 44.8717 27.6262 44.8717C27.6453 44.8717 27.6651 44.8706 27.6918 44.8659L27.6987 44.8647C27.7173 44.8612 27.7359 44.8566 27.7539 44.8525C27.7597 44.8502 27.7649 44.8478 27.7701 44.8467C27.7858 44.8408 27.8009 44.835 27.816 44.8286C27.8253 44.8239 27.8334 44.8193 27.8421 44.8152C27.8468 44.8129 27.8514 44.8105 27.859 44.8059C27.9582 44.7476 28.0319 44.6648 28.0766 44.6042C28.2218 44.4072 28.3048 44.1315 28.3048 43.8483C28.3048 43.565 28.2212 43.2893 28.0755 43.09C28.0325 43.0311 27.9594 42.9478 27.8555 42.8889ZM16.791 27.6386C15.5127 26.6845 14.3389 25.7193 13.5796 25.0782L13.413 24.936V25.4914L13.4147 25.4949C13.586 25.7566 14.0992 26.4706 15.1516 27.4253C16.2378 28.4097 18.1778 29.8901 21.2545 31.3436L21.2574 31.3448H21.2609C21.6597 31.2824 21.9778 31.0942 22.2338 30.7713L22.2454 30.7567L22.228 30.7532C21.0357 30.4886 19.2065 29.4413 16.791 27.6386ZM22.0016 21.1033L22.0005 21.0986L21.9964 21.0963C20.7309 20.4371 19.3841 19.613 17.9926 18.6443C16.3022 17.4682 14.8979 16.32 14.0173 15.5629C14.0086 15.5559 14.0005 15.5495 13.9924 15.5413C13.9273 15.4854 13.8658 15.4318 13.8083 15.3822L13.7892 15.3665V15.9651L13.7927 15.9685C14.4277 16.5595 17.8254 19.6649 22.3639 22.7451L22.3871 22.7609L22.3813 22.7335C22.2222 21.9694 22.0754 21.3842 22.0016 21.1033ZM14.4974 42.0666C14.3424 41.9867 14.1694 41.9506 14.0016 41.9162C13.7967 41.8742 13.5854 41.8299 13.4095 41.7058C12.9411 41.3771 12.8453 40.8898 12.7443 40.374C12.7187 40.244 12.692 40.11 12.6595 39.9777C12.555 39.5586 12.3309 39.2731 12.1034 39.0271C11.8601 38.7631 11.5264 38.4011 11.1183 38.3347C11.1066 38.3324 11.1014 38.3213 11.1014 38.3108C11.1014 38.2991 11.1066 38.2881 11.1183 38.2857C11.156 38.2799 11.1943 38.2776 11.232 38.2776C11.2878 38.2776 11.3441 38.2834 11.401 38.2956L11.4346 38.3026L11.412 38.2776C11.2738 38.1196 11.1432 38.0351 10.9604 37.985C10.756 37.9279 10.543 37.8941 10.327 37.8824C10.3119 37.8813 10.3055 37.8702 10.3055 37.8597C10.3055 37.8492 10.3113 37.8381 10.327 37.8381C10.3746 37.8358 10.4269 37.8346 10.482 37.8346C10.5215 37.8346 10.5627 37.8346 10.6051 37.837C11.6175 37.8504 11.9484 38.2286 12.0558 38.453L12.0656 38.4734L12.0761 38.453C12.1266 38.3551 12.1458 38.27 12.1382 38.1762C12.122 37.9815 12.0773 37.8084 12.0047 37.6615C11.8305 37.3107 11.5978 37.0309 11.3307 36.8496C10.9749 36.6095 10.5232 36.483 10.0252 36.483C9.82778 36.483 9.63041 36.5034 9.43768 36.5437C8.74281 36.6894 8.19656 37.0286 7.85812 37.5228C7.22885 38.4437 7.57425 38.9175 7.695 39.0405L7.71183 39.0574L7.71415 39.0335C7.73621 38.8365 7.84128 38.6611 8.02705 38.513C8.75791 37.9926 9.28965 37.9698 9.2972 37.9698C9.29952 37.9687 9.30126 37.9687 9.30359 37.9687C9.31403 37.9687 9.31868 37.9768 9.31984 37.9832C9.32158 37.9914 9.31868 38.0025 9.30649 38.0071C9.01681 38.1208 8.76371 38.2624 8.55357 38.4239C8.37651 38.5603 8.25577 38.7234 8.15592 38.8657L8.17275 38.8802C8.39277 38.6856 8.62961 38.5329 8.87285 38.3825C8.87691 38.3802 8.88097 38.379 8.88504 38.379C8.89665 38.379 8.90826 38.3871 8.91232 38.3994C8.91464 38.4064 8.91581 38.4151 8.90594 38.4233C8.62845 38.6564 8.27957 38.9688 8.03924 39.3098C7.81458 39.6274 7.64275 40.0191 7.49936 40.5425C7.32115 41.1912 7.19518 41.9109 7.11275 42.7403C7.05353 43.3389 7.00767 44.0278 7.21201 44.631C7.30489 44.9044 7.44828 45.141 7.65146 45.3549L7.66945 45.3427C7.42622 44.9125 7.3078 44.4492 7.31767 43.9643C7.31767 43.945 7.33682 43.9322 7.35366 43.9322C7.36062 43.9322 7.37688 43.9345 7.37978 43.9549C7.49472 44.7155 7.83432 45.3858 8.33588 45.841C8.64587 46.1202 8.96863 46.3166 9.29604 46.4261C9.42375 46.4681 9.56307 46.4868 9.69833 46.506L9.79818 46.5194L9.76973 46.4943C9.67801 46.4145 9.595 46.334 9.5236 46.2565C8.94425 45.6271 8.68767 44.9749 8.76081 44.3192C8.76313 44.3 8.77881 44.2906 8.79274 44.2906C8.80028 44.2906 8.80667 44.293 8.81073 44.2976C8.81538 44.3023 8.8177 44.3093 8.8177 44.318C8.81654 45.0431 9.303 45.7431 9.75928 46.1563C9.95608 46.3352 10.2579 46.5864 10.6086 46.7176C10.7636 46.7747 10.9244 46.7951 11.0817 46.8155L11.1148 46.819L11.0916 46.7962C10.3845 46.0904 10.0101 44.9667 10.1372 43.9334C10.1395 43.9141 10.1552 43.9048 10.1685 43.9048C10.1761 43.9048 10.1819 43.9071 10.1865 43.9118C10.1912 43.9165 10.1935 43.9235 10.1935 43.9322C10.1772 45.0967 10.9203 46.925 12.3071 47.1821C12.4186 47.2036 12.5434 47.2141 12.6671 47.2141C13.2011 47.2141 13.7747 47.0101 13.7834 46.4378C13.7909 46.0222 13.4943 45.8392 13.2034 45.7151C13.1657 45.6994 13.1262 45.6842 13.0868 45.6696C12.9858 45.6312 12.8813 45.5921 12.7971 45.5251C12.7396 45.4796 12.6897 45.4295 12.6479 45.3864L12.6212 45.3578L12.6287 45.3951C12.634 45.4225 12.6392 45.4487 12.6427 45.4761C12.6438 45.4878 12.6415 45.4965 12.6351 45.5035C12.6282 45.5128 12.616 45.5158 12.6026 45.5158C12.5852 45.5158 12.5684 45.5088 12.5597 45.4965C12.1324 44.8945 11.7081 44.1956 11.8027 43.5691C11.805 43.5534 11.8154 43.551 11.8242 43.551C11.8392 43.551 11.8572 43.5627 11.8584 43.5796C11.8625 43.6274 11.8689 43.6728 11.8764 43.7183L11.899 43.7171C11.9124 43.5417 11.9432 43.3651 11.9728 43.1949C11.9821 43.1425 11.9908 43.09 11.9995 43.0387L12.0476 42.7508C12.0703 42.6144 12.086 42.5095 12.0999 42.4128C12.1353 42.1621 12.1736 41.8311 12.1579 41.4896C12.1579 41.4837 12.1597 41.4779 12.1638 41.4738C12.1684 41.4692 12.1765 41.4657 12.1846 41.4657C12.1887 41.4657 12.2032 41.4668 12.2061 41.4814C12.2752 41.8579 12.2868 42.2601 12.2398 42.6756V42.6803L12.2421 42.6838C12.2799 42.7386 12.3187 42.7864 12.3623 42.8307C12.4395 42.9117 12.5271 42.9869 12.6299 43.0609L12.6334 43.0632H12.6374C12.652 43.0609 12.6676 43.0597 12.6827 43.0597C12.6874 43.0597 12.692 43.0597 12.6961 43.0597C12.8389 43.0667 12.9631 43.1588 13.013 43.2928L13.0142 43.2975L13.0183 43.2987C13.2998 43.449 13.5552 43.5242 13.7764 43.5242C13.9622 43.5242 14.1282 43.4718 14.2704 43.3669C14.4939 43.2008 14.7888 42.7875 14.7609 42.4413C14.7459 42.2752 14.6576 42.1487 14.4974 42.0666ZM24.3086 13.4123C22.8666 13.4123 21.694 12.2349 21.694 10.7872C21.694 9.33943 22.8672 8.16211 24.3086 8.16211C25.75 8.16211 26.9238 9.33943 26.9238 10.7872C26.9238 12.2349 25.7505 13.4123 24.3086 13.4123ZM24.7016 10.7306C24.7016 10.1385 24.1925 9.65707 23.5661 9.65707C22.9397 9.65707 22.4306 10.1385 22.4306 10.7306C22.4306 11.3228 22.9397 11.8054 23.5661 11.8054C24.1925 11.8048 24.7016 11.3222 24.7016 10.7306ZM49.0063 35.0784C48.9645 35.0738 48.9221 35.0714 48.8803 35.0714C48.7457 35.0714 48.6145 35.0942 48.5007 35.1361C48.4246 35.1635 48.3468 35.2008 48.2696 35.2463C48.0183 35.3955 47.8203 35.6024 47.6984 35.7504L47.6862 35.7638C47.5597 35.9189 47.4157 36.0925 47.3635 36.2954C47.3478 36.356 47.3344 36.4172 47.3217 36.4766C47.306 36.5495 47.2892 36.6258 47.2683 36.6999C47.2619 36.7214 47.2439 36.7354 47.2212 36.7354C47.1963 36.7354 47.1702 36.7185 47.1696 36.6864C47.1678 36.6375 47.1684 36.592 47.1696 36.553V36.546L47.1626 36.5425C47.09 36.5081 47.0088 36.4912 46.9211 36.4912C46.5966 36.4912 46.2274 36.7348 46.03 36.9761C46.0283 36.9784 46.026 36.9796 46.0231 36.9808L46.0202 36.9831L46.019 36.9866C45.8634 37.32 45.7055 37.6376 45.4873 37.8504C45.4826 37.855 45.4774 37.8574 45.4722 37.8574C45.4646 37.8574 45.4571 37.8527 45.453 37.8457C45.4507 37.841 45.4478 37.8335 45.453 37.8241C45.5163 37.7058 45.5819 37.591 45.655 37.4622C45.8704 37.0157 45.8524 36.5297 45.799 36.2021L45.7972 36.1899L44.7332 36.4347L44.732 36.4417C44.7198 36.5215 44.7053 36.6054 44.6838 36.6853L44.6769 36.7115L44.7007 36.6981C44.7552 36.666 44.8081 36.6398 44.8638 36.6183C44.8667 36.6159 44.8702 36.6159 44.8731 36.6159C44.8847 36.6159 44.8928 36.6264 44.8963 36.634C44.9004 36.6445 44.9009 36.6579 44.8917 36.6672C44.6624 36.8858 44.4046 37.1568 44.2252 37.5007C44.1132 37.7169 44.0406 37.95 43.9704 38.1756C43.9327 38.2986 43.8932 38.425 43.8479 38.5468C43.8444 38.5585 43.8328 38.5626 43.8229 38.5626C43.8166 38.5626 43.8108 38.5602 43.8078 38.5568C43.8049 38.5533 43.8044 38.5486 43.8038 38.5375C43.636 38.1173 44.195 36.8083 44.2009 36.796L44.2026 36.7925L44.1405 36.5705L43.4729 36.7243L43.4868 36.7389C43.6343 36.8939 43.7097 37.0484 43.7185 37.2116C43.7185 37.2151 43.7184 37.2174 43.7161 37.2197C43.7138 37.2221 43.7097 37.2232 43.7051 37.2232C43.7022 37.2232 43.6976 37.2232 43.6952 37.2174C43.5292 36.9237 43.232 36.8613 43.0114 36.8613C42.9028 36.8613 42.8134 36.8759 42.7693 36.8864L41.2519 37.2337V37.2431C41.2699 37.9646 41.5514 38.6238 41.9682 38.9234C42.5807 39.3628 43.3812 39.6158 44.1631 39.6158C44.487 39.6158 44.7965 39.5726 45.0826 39.4858C45.3183 39.4153 45.5476 39.3197 45.7688 39.2253C45.8309 39.2002 45.893 39.174 45.9552 39.1477C46.0881 39.0918 46.2274 39.0452 46.3615 38.9985C46.4915 38.9542 46.6256 38.9076 46.7551 38.8552C47.1098 38.7095 47.4407 38.5364 47.7182 38.3871C47.7344 38.3778 47.753 38.3691 47.7733 38.3574C47.9347 38.2741 48.204 38.133 48.2151 37.9395C48.2162 37.9121 48.2145 37.8882 48.2081 37.8655C48.1994 37.8346 48.1889 37.8043 48.1744 37.7676C48.0537 37.4616 47.7884 37.2862 47.4465 37.2862C47.2572 37.2862 47.0523 37.3421 46.87 37.4435C46.6349 37.5735 46.4515 37.7659 46.2744 37.9512C46.1839 38.0456 46.0898 38.1447 45.9894 38.2333C45.9801 38.2426 45.9685 38.2467 45.9563 38.2467C45.9377 38.2467 45.9192 38.235 45.9099 38.2205C45.9046 38.21 45.9006 38.1942 45.9128 38.175C45.9575 38.1021 46.0039 38.0305 46.0515 37.9623L46.0637 37.9442C46.0637 37.9442 46.0231 37.9442 46.0132 37.943C46.0004 37.943 45.9877 37.943 45.9743 37.943C45.9459 37.943 45.9244 37.9442 45.9035 37.9489C45.806 37.9716 45.7224 38.0036 45.6492 38.0456C45.413 38.1832 45.2876 38.3324 45.2661 38.5008C45.2649 38.513 45.2527 38.5212 45.2423 38.5212C45.2347 38.5212 45.2301 38.5165 45.2284 38.5078C45.2109 38.4145 45.2318 38.3178 45.2893 38.2234L45.305 38.1925L45.2696 38.2094C45.2516 38.2187 45.233 38.2275 45.2156 38.2414C45.1662 38.2776 45.1233 38.3178 45.089 38.3609C45.0107 38.4565 44.9305 38.5614 44.8853 38.6879C44.8818 38.6972 44.8742 38.6984 44.8702 38.6984C44.865 38.6984 44.8597 38.6961 44.8568 38.6926C44.8545 38.6891 44.8539 38.6844 44.8551 38.6803C44.8847 38.5643 44.9317 38.4151 45.0304 38.3003C45.0792 38.242 45.1929 38.1091 45.3032 38.1091C45.3125 38.1091 45.3218 38.1091 45.3299 38.1115C45.3363 38.1126 45.341 38.1173 45.345 38.1237L45.3532 38.1359L45.3636 38.1243C45.4159 38.0672 45.482 38.0141 45.5552 37.9693C45.6335 37.9215 45.8338 37.8101 45.9923 37.8101C46.044 37.8101 46.0863 37.8224 46.1183 37.8463L46.1276 37.8533L46.1345 37.844C46.3876 37.5012 46.6483 37.2728 46.9559 37.1236C47.1226 37.0426 47.2938 37.0018 47.4645 37.0018C47.8168 37.0018 48.1396 37.1836 48.3503 37.5001C48.3561 37.5094 48.3619 37.5181 48.3672 37.5263L48.3764 37.542L48.3863 37.5275C48.4159 37.4808 48.4438 37.4319 48.4717 37.3829C48.5065 37.3235 48.5419 37.2611 48.5814 37.2017C48.6934 37.0321 48.8589 36.8986 49.0179 36.7692L49.0928 36.7086C49.4231 36.4422 49.9229 36.0395 49.7331 35.5552C49.6286 35.2923 49.3575 35.1151 49.0063 35.0784ZM50.6944 35.0749L50.6904 35.0714L50.6677 35.0761L50.6666 35.0842C50.6503 35.2119 50.6039 35.3121 50.5284 35.385C50.4523 35.4578 50.3612 35.5126 50.2736 35.5651C50.1905 35.614 50.1046 35.6653 50.0315 35.7324L50.0274 35.7359V35.7417C50.0286 35.8897 49.9897 36.0413 49.9107 36.191L49.8985 36.2149L49.9235 36.2079C49.9856 36.191 50.0425 36.1817 50.0982 36.1817C50.1749 36.1817 50.2527 36.1975 50.3345 36.2307C50.36 36.2423 50.3873 36.2534 50.4152 36.2662C50.5139 36.3105 50.6259 36.3618 50.7333 36.3618C50.7914 36.3618 50.8413 36.3472 50.8871 36.3187C51.0207 36.2336 51.1135 36.1147 51.1484 35.983C51.2337 35.6589 51.077 35.3448 50.6944 35.0749ZM42.2498 39.4269C40.9697 39.3156 40.9425 38.0369 40.9419 38.0211C40.9407 38.0176 40.9413 38.0141 40.943 38.0118C40.9448 38.0083 40.9488 38.0071 40.9529 38.0071C40.9558 38.0071 40.9616 38.0083 40.9645 38.0153C41.0202 38.1802 41.1195 38.4151 41.2745 38.5935C41.3192 38.6459 41.368 38.6914 41.4231 38.7322L41.4394 38.7176C41.1805 38.3137 41.0382 37.781 41.0597 37.2926L41.0603 37.2769L40.1994 37.475L40.2 37.4843C40.2122 37.6982 40.2511 37.9238 40.3149 38.1523C40.4897 38.7782 40.7416 39.2165 41.0858 39.491C41.3064 39.6676 41.5526 39.7609 41.7981 39.7609C42.0216 39.7609 42.2376 39.681 42.421 39.5318L42.4349 39.5202L42.4187 39.5132C42.3635 39.4875 42.309 39.459 42.2498 39.4269Z" fill="white"/>
<path d="M60.7485 32.4223L59.7849 28.1851C59.7152 27.878 59.4476 27.6635 59.1347 27.6635C59.0848 27.6635 59.0349 27.6693 58.9861 27.6804L35.8482 32.9725C35.8209 32.9579 35.7925 32.9439 35.7629 32.9329C35.2578 32.7405 34.794 32.4684 34.3813 32.1233C34.5751 31.7591 34.7058 31.4129 34.7702 31.0888C35.1452 29.929 33.9575 28.6502 33.7143 28.4054C33.6928 28.3839 33.6707 28.3646 33.6475 28.346C33.4809 26.4949 33.258 23.8722 33.1018 21.9896C33.1105 21.862 33.0954 21.7355 33.0577 21.6137C33.0502 21.5875 33.0403 21.5601 33.0293 21.5339C32.9666 21.3759 32.865 21.2302 32.7332 21.1061C32.7634 20.8671 32.8058 20.6235 32.84 20.4446C33.9203 20.3822 34.6378 20.2155 34.8103 20.1724C37.1143 19.8174 38.2225 18.6174 38.7473 17.6738C39.3231 16.6357 39.3295 15.6671 39.3295 15.6216V15.6071C39.1321 9.10615 31.0956 8.15672 27.1673 7.70911C27.4517 6.17451 25.8164 4.09147 24.3599 2.23691C23.8497 1.58705 23.4091 1.02578 23.2326 0.698815C23.095 0.4447 22.8024 0.120646 22.1877 0.0273931C22.0733 0.0093253 21.9468 0 21.8103 0C21.141 0 19.8883 0.219727 17.723 1.26241C15.9832 2.09936 14.3636 3.14496 13.4957 3.99123C12.4943 4.96805 12.3556 6.66992 13.0818 9.05137C13.4568 10.2806 13.9607 11.3576 14.2103 11.8583C14.0791 12.2645 13.9421 12.8724 13.8092 13.6365C13.1521 13.7426 12.7678 14.0818 12.7678 14.5702V16.1182C12.7678 16.3012 12.8432 16.4778 12.9756 16.6043C12.982 16.6113 13.1207 16.7418 13.3761 16.9755C13.3338 17.4208 13.296 17.8783 13.2629 18.3394C12.4729 18.5364 11.8546 19.0498 11.5847 19.744C11.3339 20.3904 11.4012 21.1066 11.7728 21.7612C12.0671 22.2793 12.5344 22.7129 13.101 22.9985C13.101 23.0918 13.1016 23.1862 13.1021 23.2794C12.647 23.4345 12.391 23.7451 12.391 24.1584V25.5927C12.391 25.7098 12.4218 25.8247 12.4793 25.9261C12.5193 25.9966 12.7393 26.3667 13.2386 26.9437C13.2682 27.3797 13.3047 27.8249 13.3471 28.2731H13.1811C12.2842 28.2731 11.5551 29.0052 11.5551 29.9056C11.5551 30.4442 11.8163 30.939 12.2482 31.2432C12.236 31.5632 12.3016 31.9071 12.4415 32.2486C12.5257 32.4538 12.6813 32.6962 12.9053 32.9702C12.0595 33.4289 10.9537 34.2209 9.92037 35.5556C9.74099 35.5603 9.55697 35.576 9.37237 35.6022C8.3112 35.7549 7.40735 36.3821 6.89128 37.3233C6.64108 37.7785 6.44719 38.5321 6.72177 39.1581C6.77866 39.2881 6.8518 39.404 6.94004 39.5043C6.92669 39.5352 6.91276 39.5655 6.89941 39.5975L0.518457 41.0605C0.344304 41.1001 0.196275 41.2062 0.102232 41.3577C0.00760932 41.5092 -0.0225771 41.6887 0.0168975 41.863L0.980542 46.1002C1.0502 46.4073 1.31782 46.6218 1.63071 46.6218C1.68063 46.6218 1.73114 46.616 1.7799 46.6049L6.61089 45.4976C6.76763 45.7662 6.96616 45.997 7.19314 46.1725C7.40967 46.3386 7.64304 46.5128 7.91297 46.6405C8.47955 47.1231 9.17732 47.3929 10.0429 47.4634C10.4254 47.6663 10.8126 47.7729 11.1679 47.7729C11.2132 47.7729 11.2579 47.7706 11.302 47.7671C11.6723 47.981 12.0752 48.1075 12.5007 48.1459C12.5739 48.1518 12.6476 48.1553 12.7202 48.1553C12.9437 48.1553 13.1857 48.122 13.4214 48.048C13.397 48.1879 13.3999 48.3348 13.4394 48.4898C13.505 48.7573 13.6374 49.1216 13.7924 49.5459C13.9154 49.8828 14.0426 50.2313 14.1412 50.5501C14.2359 50.8415 14.309 51.2903 14.2858 51.7035C13.8678 51.8323 13.5393 52.0859 13.3442 52.4297C12.1275 52.9794 11.1963 53.8961 10.8039 54.9248C1.33871 55.5298 1.33813 56.3994 1.33813 56.7718C1.33813 57.2375 1.92793 57.5336 3.44132 57.8291C4.64413 58.0634 6.36186 58.2744 8.54631 58.4539C13.0244 58.824 18.9763 59.0274 25.3062 59.0274C31.636 59.0274 37.588 58.8234 42.066 58.4539C44.2505 58.2738 45.9682 58.0634 47.171 57.8291C48.6844 57.533 49.2742 57.2369 49.2742 56.7718C49.2742 56.3942 49.273 55.5118 39.542 54.9085C39.5414 54.8951 39.5414 54.88 39.5402 54.8654C39.4979 53.9434 39.0207 53.0965 38.2312 52.5411C36.9663 51.6563 35.1371 51.4879 34.2408 51.4617C34.1955 51.3806 34.1438 51.3037 34.0846 51.2309C34.0765 51.2175 34.0666 51.2011 34.0544 51.1854C34.0539 51.0956 34.0515 51.0041 34.0492 50.9109C34.0393 50.5099 34.0289 50.0559 34.1398 49.3914C34.1734 49.1991 34.221 49.0021 34.2681 48.8086C34.4498 48.0585 34.7539 46.8043 33.3909 46.3928C33.2104 46.338 33.0008 46.2972 32.7547 46.2675V45.4463C33.0914 45.3985 33.4031 45.3437 33.7015 45.2813C35.2282 44.9613 35.6891 43.8277 35.6212 42.9488C35.6212 41.6182 35.5028 40.2655 35.2706 38.9261L36.9256 38.5473C37.9096 38.8673 39.0352 38.9891 39.726 39.0357C39.9501 39.5364 40.2589 39.9408 40.6269 40.213C40.9712 40.4683 41.3857 40.6082 41.7943 40.6082C42.1641 40.6082 42.5003 40.4986 42.7766 40.2882C43.2003 40.4158 43.6578 40.4817 44.11 40.4817C44.7166 40.4817 45.3244 40.3657 45.8672 40.146C46.0355 40.0778 46.2039 40.0119 46.3751 39.9443L46.3914 39.9373C46.9678 39.7118 47.5646 39.4787 48.144 39.1668C48.8812 38.7717 49.0693 38.3019 49.0809 37.9417C49.1076 37.9021 49.1355 37.8595 49.1633 37.8118C49.2638 37.6456 49.4275 37.518 49.6341 37.3554L49.7525 37.2621C49.8652 37.1712 49.9691 37.078 50.0614 36.9801C50.0672 36.9836 50.0736 36.9859 50.0799 36.9894C50.2808 37.0873 50.4677 37.1432 50.6692 37.1648C50.704 37.1695 50.7394 37.1706 50.7754 37.1706C51.3211 37.1706 51.6694 36.7265 51.7942 36.5342C51.9115 36.3529 52.2064 35.7876 51.847 35.1307L60.2464 33.226C60.4176 33.1864 60.5697 33.078 60.6626 32.9288C60.7567 32.779 60.788 32.5942 60.7485 32.4223ZM50.8805 36.308C50.7104 36.4165 50.4985 36.2865 50.3383 36.2206C50.181 36.1571 50.0527 36.16 49.9203 36.1967C49.9952 36.0534 50.0393 35.9007 50.0382 35.7415C50.1885 35.604 50.3865 35.5375 50.5351 35.393C50.621 35.3108 50.6616 35.2007 50.6767 35.087L50.6872 35.0847C51.0018 35.3067 51.2346 35.6081 51.1371 35.9805C51.0999 36.1186 50.9989 36.2329 50.8805 36.308ZM34.502 38.0484C34.4759 38.0484 34.4492 38.0507 34.4225 38.0554C34.39 38.0624 34.3598 38.0734 34.3313 38.0874L15.3905 42.4202C15.3615 42.0548 15.1705 41.736 14.839 41.5162C14.6022 41.3583 14.3444 41.3023 14.1372 41.258C13.8452 41.1957 13.6873 41.1543 13.5607 40.9713C13.4243 40.7731 13.3698 40.4957 13.3123 40.2031C13.2966 40.1244 13.2809 40.0452 13.2635 39.9653L13.2589 39.9537L13.2502 39.907C13.2368 39.8499 13.2223 39.7934 13.206 39.7374C13.155 39.5632 13.0824 39.4099 12.9959 39.2659L58.8578 28.7761L59.0436 29.5921L54.1133 30.8603L59.1957 30.2594L59.3391 30.8889L48.707 33.1019L59.5097 31.6402L59.6589 32.2958L34.502 38.0484ZM48.57 37.1945C48.4981 37.3029 48.4412 37.4154 48.375 37.5203C48.3698 37.511 48.364 37.5023 48.3582 37.4929C48.0325 37.0045 47.4729 36.8588 46.9493 37.1129C46.6021 37.2814 46.3444 37.5384 46.1238 37.8368C45.9763 37.7255 45.6733 37.8834 45.5479 37.9598C45.48 38.0006 45.4109 38.053 45.354 38.1172C45.3494 38.109 45.3424 38.1026 45.332 38.0991C45.213 38.0752 45.0911 38.2092 45.0208 38.2914C44.9279 38.401 44.878 38.5397 44.8432 38.6761C44.8339 38.7105 44.8832 38.7227 44.8948 38.6907C44.9384 38.5689 45.0156 38.4674 45.0969 38.3672C45.1329 38.3229 45.1758 38.2838 45.2217 38.25C45.2397 38.2366 45.2594 38.2273 45.2791 38.2168C45.2257 38.3042 45.1973 38.4045 45.2164 38.5094C45.2234 38.5467 45.2722 38.5321 45.2762 38.5012C45.3029 38.2949 45.4864 38.1515 45.6542 38.0548C45.7325 38.0093 45.8173 37.9796 45.9055 37.9592C45.9502 37.9487 45.9967 37.9534 46.0414 37.9545C45.9932 38.0239 45.9467 38.0956 45.902 38.1684C45.8649 38.2291 45.9467 38.2856 45.9955 38.2413C46.2927 37.9761 46.5209 37.6468 46.8744 37.4516C47.3405 37.1945 47.9495 37.2307 48.1625 37.7715C48.1747 37.8024 48.1863 37.8339 48.1956 37.8683C48.202 37.8922 48.2032 37.9149 48.202 37.9376C48.1898 38.1492 47.8566 38.2973 47.7109 38.3759C47.3968 38.5455 47.0793 38.7081 46.7496 38.8439C46.4866 38.9512 46.2126 39.027 45.9502 39.1365C45.6611 39.2548 45.379 39.3848 45.0789 39.4746C44.063 39.7782 42.8265 39.5259 41.9737 38.9133C41.5215 38.5887 41.2777 37.884 41.262 37.2423L42.7708 36.8961C42.9043 36.8687 43.4395 36.7889 43.6845 37.2231C43.6949 37.2435 43.7303 37.2353 43.7286 37.2114C43.7182 37.0214 43.6212 36.8641 43.4935 36.7312L44.1315 36.5843L44.1895 36.7912C44.1895 36.7912 43.6212 38.1131 43.7925 38.542C43.7878 38.5817 43.8459 38.584 43.8575 38.5502C43.9864 38.2017 44.0624 37.8374 44.2342 37.5064C44.4014 37.1852 44.64 36.9224 44.8989 36.6752C44.9256 36.649 44.8978 36.5919 44.8589 36.607C44.8008 36.6309 44.7468 36.6572 44.694 36.6892C44.7155 36.6094 44.7294 36.5278 44.7422 36.4444L45.7871 36.2043C45.8399 36.5289 45.8597 37.0139 45.6443 37.4586C45.5758 37.578 45.5079 37.6975 45.4423 37.8193C45.4289 37.8444 45.4492 37.8695 45.4719 37.8695C45.48 37.8695 45.4875 37.866 45.4951 37.8601C45.7227 37.6369 45.8864 37.2977 46.0292 36.9917C46.0321 36.9894 46.0355 36.987 46.039 36.9836C46.2776 36.6921 46.785 36.3792 47.1577 36.5534C47.1565 36.5966 47.1559 36.6408 47.1577 36.6869C47.1594 36.7562 47.2587 36.7714 47.2784 36.7026C47.3161 36.5703 47.3388 36.4339 47.3736 36.2999C47.4276 36.093 47.5745 35.9187 47.7062 35.7579C47.8618 35.5702 48.0569 35.3854 48.2746 35.2572C48.3489 35.2129 48.4255 35.175 48.5044 35.147C48.6542 35.0911 48.8313 35.0719 49.0048 35.0899C49.3119 35.122 49.608 35.2718 49.7212 35.5603C49.9197 36.0644 49.3578 36.4777 49.0252 36.7475C48.862 36.8792 48.6867 37.0179 48.57 37.1945ZM41.4292 38.7233C41.3787 38.686 41.3299 38.6411 41.2823 38.5869C41.1424 38.4255 41.0414 38.2122 40.9741 38.0122C40.9642 37.9837 40.923 37.9953 40.93 38.0239C40.93 38.0239 40.9427 39.3248 42.2483 39.439C42.3023 39.4687 42.3569 39.4973 42.4126 39.5241C42.0208 39.8418 41.5134 39.819 41.0919 39.4822C40.6862 39.1587 40.4609 38.6376 40.3245 38.1504C40.2635 37.9318 40.2229 37.7086 40.2096 37.4842L41.0472 37.2919C41.0263 37.7855 41.1697 38.3194 41.4292 38.7233ZM33.5929 48.0713C33.5175 48.5359 33.381 48.984 33.3131 49.4474C33.2266 50.0279 33.2452 50.5798 33.2406 51.1539C33.1152 51.1481 32.9642 51.1563 32.782 51.1836C32.2682 51.2588 31.827 51.2897 31.5368 51.302C31.1438 51.2734 30.9737 51.2303 31.1693 51.3113C31.2488 51.3445 31.3876 51.3661 31.5582 51.3818L31.654 51.3987C31.654 51.3987 33.229 51.4465 33.5041 51.8242C32.8388 51.8813 31.3545 52.4501 31.2227 53.1664C31.2587 53.1367 31.3017 53.1041 31.3504 53.0697C31.7463 52.8249 32.8197 52.4163 33.4797 52.3295C33.7677 52.2986 34.1763 52.2922 34.5624 52.2922C35.7896 52.3604 37.1224 52.6495 38.0089 53.4101C38.5389 53.927 38.8042 54.5507 38.7055 55.2874C38.5464 56.1319 38.1226 56.2846 37.3424 56.2916C36.1535 56.277 34.9792 56.0561 33.7752 56.0561C32.2607 56.0788 30.738 56.1243 29.2461 55.8282C28.4734 55.661 28.3678 55.5537 28.3904 54.7401C28.4206 54.0786 28.5495 53.4171 28.6708 52.7707C28.9814 51.1586 29.0191 49.5162 28.8827 47.8813C28.8299 47.2653 28.9053 47.2122 29.4812 47.1516C29.6983 47.1301 29.916 47.1108 30.1337 47.0933C30.1343 47.1306 30.1348 47.1685 30.1354 47.2058C29.6222 47.2618 29.2832 47.3311 29.1857 47.3492C29.0116 47.3789 29.0795 47.4553 29.2159 47.4553C29.3523 47.4553 30.0187 47.3335 31.5942 47.7671C33.1616 48.1926 33.4873 47.5007 33.3282 47.3947C33.2214 47.3171 32.9776 47.2274 32.4534 47.1761V47.0555C33.1709 47.0992 33.7328 47.1814 33.5929 48.0713ZM14.8001 52.8855C14.5348 52.8855 14.3003 52.8925 14.0733 52.9082C14.1412 52.7707 14.2475 52.6728 14.3613 52.611C14.5581 52.5504 14.8686 52.4892 15.2773 52.5347C15.6384 52.569 16.1452 52.6885 16.6328 52.843C17.0014 52.9805 17.3828 53.146 17.7932 53.3133C17.8333 53.3349 17.871 53.3576 17.9053 53.3792C18.1224 53.5179 18.1398 53.4987 18.0132 53.4007C17.0908 52.3546 15.8549 52.0666 15.1008 51.9938C15.1438 51.6021 15.1827 50.9284 14.7926 49.8437C14.543 48.9613 14.172 48.4222 14.255 48.224C14.4611 47.7007 15.1148 47.3772 15.8543 47.2041C15.8514 47.2554 15.8491 47.3078 15.8462 47.3591C15.3545 47.4798 14.9812 47.6424 14.7926 47.7828C14.4141 48.0649 14.3305 48.361 14.6794 48.1856C15.0352 48.0183 15.8003 47.851 17.4136 48.1786C19.0268 48.4974 19.4279 48.1104 19.2538 47.8213C19.104 47.573 18.9763 47.3364 18.1084 47.2303C18.1131 47.1697 18.1183 47.1062 18.1241 47.0415C18.9989 47.1324 19.5951 47.4932 19.4808 48.3913C19.4279 49.0447 18.6553 50.528 19.7687 53.2043C20.8972 55.8819 20.7759 56.7707 16.5196 56.9461C12.2627 57.1279 11.165 56.467 11.5888 55.2874C11.7937 54.7261 12.1867 54.2616 12.6244 53.8996C14.1633 52.7713 16.8453 53.2952 16.8453 53.2952C16.8453 53.2952 15.762 52.9001 14.8001 52.8855ZM11.0826 46.8066C10.9247 46.7862 10.7656 46.767 10.6118 46.7087C10.2942 46.5915 10.0138 46.3753 9.76596 46.1497C9.27368 45.7033 8.82669 45.008 8.82786 44.3202C8.82843 44.2666 8.75413 44.2701 8.74833 44.3202C8.66473 45.0703 9.0171 45.726 9.5146 46.2669C9.58716 46.3456 9.67075 46.426 9.76131 46.5047C9.60399 46.4831 9.44435 46.4662 9.29807 46.4173C8.94279 46.2989 8.61887 46.085 8.34255 45.8344C7.8108 45.353 7.49617 44.6583 7.38994 43.9548C7.38181 43.9047 7.30576 43.9187 7.30518 43.9665C7.29473 44.4659 7.42244 44.9328 7.65871 45.3507C7.47353 45.1548 7.32143 44.9258 7.22159 44.6303C7.01957 44.0317 7.06195 43.3632 7.1229 42.7443C7.19605 42.0052 7.31273 41.2633 7.50894 40.547C7.62794 40.1157 7.78758 39.685 8.04707 39.319C8.27753 38.9902 8.6061 38.6918 8.91203 38.4342C8.94512 38.4057 8.90158 38.352 8.86559 38.3736C8.61191 38.531 8.37854 38.6819 8.16375 38.8719C8.27695 38.7116 8.39247 38.5624 8.55908 38.4336C8.7849 38.2594 9.04496 38.123 9.3091 38.0181C9.34509 38.0047 9.33174 37.9487 9.29284 37.9586C9.29284 37.9586 8.76168 37.9744 8.01921 38.503C7.79745 38.6808 7.71908 38.8731 7.70109 39.0322C7.30634 38.6306 7.56467 37.9691 7.86595 37.5285C8.23748 36.9865 8.81102 36.6875 9.43797 36.5552C10.0643 36.424 10.7847 36.4969 11.3223 36.86C11.6149 37.057 11.8372 37.3531 11.9922 37.666C12.0712 37.8252 12.1106 38.0006 12.1251 38.176C12.1339 38.2809 12.106 38.366 12.0642 38.447C11.9551 38.2192 11.6207 37.8391 10.6036 37.8257C10.502 37.8222 10.4068 37.8234 10.325 37.8269C10.282 37.8292 10.2826 37.8904 10.325 37.8939C10.5375 37.9056 10.7511 37.9394 10.956 37.9953C11.1598 38.0525 11.2857 38.1515 11.4024 38.2844C11.3107 38.2652 11.2155 38.2594 11.1156 38.2739C11.0802 38.2798 11.0802 38.3398 11.1156 38.3445C11.5098 38.4092 11.8355 38.753 12.0944 39.0345C12.3579 39.3201 12.5524 39.5981 12.6476 39.9793C12.8078 40.6245 12.8096 41.2977 13.4023 41.7144C13.7239 41.9423 14.1488 41.8997 14.4913 42.0752C15.041 42.3573 14.5906 43.1155 14.2614 43.358C13.8794 43.6401 13.4011 43.4914 13.022 43.291C12.9727 43.1569 12.8467 43.0578 12.6952 43.0497C12.6743 43.0497 12.6546 43.0508 12.6348 43.0532C12.5402 42.985 12.4508 42.9098 12.369 42.8241C12.3243 42.7786 12.2854 42.7297 12.25 42.6796C12.2952 42.2797 12.2888 41.8782 12.2163 41.4818C12.2087 41.4422 12.1437 41.451 12.1455 41.4912C12.16 41.8018 12.1309 42.1084 12.088 42.4132C12.0723 42.5245 12.0543 42.6376 12.0357 42.7501C12.0201 42.8457 12.0038 42.9424 11.9881 43.038C11.9516 43.2601 11.9051 43.4885 11.8871 43.7176C11.879 43.6733 11.8732 43.6267 11.8691 43.58C11.8657 43.5381 11.7977 43.5218 11.7908 43.5695C11.6903 44.2369 12.1815 44.9858 12.5501 45.5045C12.5785 45.5442 12.6598 45.5366 12.6534 45.476C12.6499 45.4474 12.6447 45.4212 12.6395 45.395C12.6865 45.4439 12.7353 45.4917 12.7892 45.5348C12.9071 45.6293 13.0609 45.6672 13.1985 45.726C13.523 45.8647 13.7784 46.0547 13.7715 46.4377C13.7599 47.1685 12.8386 47.2711 12.308 47.1732C10.9728 46.9249 10.1868 45.1717 10.2037 43.9332C10.2042 43.8808 10.1317 43.8843 10.1253 43.9332C10.0022 44.9339 10.3592 46.0839 11.0826 46.8066ZM6.54007 44.4479L1.90413 45.511L1.77003 44.9217L2.56707 44.2794H1.62433L1.37761 43.1959L6.62773 41.7686C6.57432 42.1212 6.53601 42.4686 6.50292 42.7944C6.45358 43.2746 6.42165 43.8615 6.54007 44.4479ZM1.23538 42.57L1.10361 41.9918L6.84774 40.6746C6.78737 40.9025 6.73861 41.131 6.69681 41.36L1.23538 42.57ZM33.3416 31.4571C33.5546 31.1086 33.6852 30.7921 33.7323 30.5089C33.7439 30.4407 33.7502 30.3748 33.7526 30.3096C33.8118 30.4873 33.8298 30.6534 33.7793 30.7863C33.7711 30.8079 33.7653 30.8294 33.7613 30.851C33.7166 31.104 33.615 31.3656 33.4751 31.6308C33.3596 31.8494 33.2179 32.0691 33.0612 32.2842C32.8859 32.5255 32.692 32.7598 32.4934 32.983C32.447 33.0343 32.4006 33.0856 32.3541 33.1357C31.8317 33.7005 31.3057 34.1615 31.0451 34.3812L30.3078 34.5496C30.6242 34.2955 30.9876 33.993 31.358 33.662C31.9971 33.0908 32.5091 32.5634 32.8934 32.0843C33.0705 31.8645 33.2197 31.6553 33.3416 31.4571ZM23.2639 33.6212C24.393 33.6212 25.5361 33.5827 26.6268 33.4877C26.6727 33.4889 26.7185 33.4901 26.7644 33.4901C27.6642 33.4901 28.553 33.3776 29.426 33.1509C30.0327 32.9935 30.5923 32.7889 31.0927 32.561C31.3469 32.4561 31.5838 32.3425 31.8015 32.2172C30.8262 33.2394 29.5178 34.2629 28.8618 34.7303C28.7968 34.777 28.7515 34.8405 28.7277 34.9116L21.8376 36.487C21.8196 36.4747 21.7999 36.4619 21.779 36.4526C21.0052 36.0825 19.0088 35.0993 17.1953 33.9324C16.8853 33.7331 16.5219 33.4895 16.1504 33.2196C17.7834 33.3927 20.4821 33.6212 23.2639 33.6212ZM15.0637 32.3541C15.0172 32.3133 14.9714 32.2708 14.9261 32.23C14.6608 30.7834 14.4611 29.2488 14.3282 27.6524C15.5757 28.8513 17.6777 30.4687 21.0354 32.0406C21.0354 32.0417 21.0365 32.0417 21.0365 32.0417C21.2542 32.1443 21.4777 32.2457 21.7064 32.3465C22.1668 32.5517 22.626 32.7277 23.0834 32.8781C19.5626 32.8606 16.1742 32.4888 15.0637 32.3541ZM32.5219 30.8481C32.501 30.8615 32.4818 30.8778 32.4644 30.8947C32.0952 31.1861 31.499 31.5778 30.7136 31.9263C29.6385 32.3541 28.2296 32.6082 26.6924 32.7446C25.3921 32.7341 23.877 32.4748 22.201 31.7602C22.4762 31.5906 22.7154 31.3586 22.9162 31.0626C23.0045 30.9314 23.0834 30.7904 23.1542 30.64C23.1647 30.622 23.1734 30.6039 23.1798 30.5829C23.9704 28.8332 23.6825 25.8596 23.2912 23.6379C23.3133 23.5388 23.2947 23.4351 23.2396 23.3523C23.1055 22.6261 22.9644 21.9966 22.8541 21.5368C24.6479 22.3883 26.2994 22.9093 27.7936 23.0918C29.8161 23.3068 31.3197 23.1978 32.13 22.7957C32.6032 28.4666 32.7663 30.0846 32.829 30.5695C32.7674 30.6365 32.6635 30.7333 32.5219 30.8481ZM34.6216 19.153L34.5815 19.1612C34.5502 19.1693 31.3957 19.9818 27.5336 18.7135C27.3409 18.6512 27.1342 18.7555 27.0709 18.949C27.0076 19.1425 27.1127 19.35 27.3054 19.4135C29.0208 19.9771 30.5882 20.1537 31.8398 20.1671C31.7707 20.5063 31.6198 21.334 31.6703 21.8369C31.6825 21.9587 31.7521 22.0602 31.8491 22.1167C31.4305 22.3423 30.3369 22.6208 27.8778 22.3592C26.8045 22.228 25.6881 21.9104 24.5742 21.4744C23.8421 20.5227 22.5993 18.5568 23.3191 16.9301C23.3487 16.8957 23.3632 16.8654 23.3655 16.8368C24.4215 16.757 25.2957 17.2693 25.2957 17.2693C25.9441 17.2693 25.4931 16.7284 25.4931 16.7284C25.4931 16.7284 23.9983 15.8542 22.6167 16.1934C21.2351 16.5338 20.5019 18.6284 21.4609 17.8131C21.8957 17.3247 22.37 17.0583 22.8326 16.9283C22.7879 16.9761 22.7432 17.0321 22.7014 17.0991C22.4019 17.5759 22.1662 19.2503 23.0962 20.8269C19.5295 19.1139 16.1957 16.4626 14.6248 15.1274C14.8303 13.6044 15.0567 12.5618 15.2152 12.1083C16.1812 11.7563 18.9333 10.4612 21.3082 9.32064C21.0928 9.76359 20.9721 10.2607 20.9721 10.7859C20.9721 12.0652 21.6913 13.1796 22.745 13.7443C22.4768 13.7828 22.2184 13.8376 21.981 13.9139C21.981 13.9139 21.6821 13.9641 21.7755 14.2077C21.869 14.4501 22.0553 14.6868 22.3264 14.5801C22.5975 14.4717 25.4014 14.1296 26.2704 14.3003C26.6628 14.3435 26.5734 13.9145 26.5734 13.9145C26.5734 13.9145 26.2605 13.8539 25.7799 13.7927C26.8834 13.2454 27.645 12.1037 27.645 10.7865C27.645 10.0101 27.3803 9.29616 26.938 8.72731C26.9531 8.72964 26.9687 8.73198 26.9844 8.73314C28.8571 8.94588 31.686 9.26818 34.0515 10.2654C35.3263 10.8016 36.326 11.4812 37.022 12.2826C37.826 13.2093 38.2538 14.3359 38.295 15.6315C38.2939 15.6921 38.2724 16.3956 37.8434 17.1685C37.2397 18.256 36.1559 18.9228 34.6216 19.153ZM26.9119 10.787C26.9119 12.2307 25.7462 13.4005 24.3083 13.4005C22.8704 13.4005 21.7047 12.2301 21.7047 10.787C21.7047 9.34395 22.8704 8.17246 24.3083 8.17246C25.7462 8.17246 26.9119 9.34395 26.9119 10.787ZM26.0585 7.7569C26.0289 7.80236 26.0115 7.85248 26.0039 7.90377C25.7061 7.72601 25.3782 7.59429 25.0304 7.51677C25.1251 7.47015 25.1877 7.43926 25.2121 7.42818C25.3938 7.33843 25.4693 7.1187 25.3805 6.93511C25.2917 6.75326 25.0716 6.67691 24.8899 6.76667C24.8075 6.80747 17.078 10.6017 15.1153 11.3623C14.2951 9.72978 12.8659 6.05328 14.215 4.73842C15.8596 3.13447 20.4903 0.817712 22.0298 1.05492C22.1378 1.07066 22.2759 1.10971 22.3224 1.19597C22.5412 1.60104 23.0074 2.19436 23.5466 2.8821C24.7071 4.35899 26.65 6.83253 26.0585 7.7569ZM17.9848 18.6529C19.3844 19.6274 20.7207 20.4446 21.9903 21.1061C22.0605 21.3736 22.2092 21.9646 22.3688 22.7351C17.8391 19.6606 14.4524 16.5664 13.7993 15.9597V15.3902C13.8568 15.4404 13.9189 15.494 13.9839 15.5494C13.9921 15.5575 14.0002 15.5639 14.0089 15.5709C14.8489 16.2936 16.2694 17.4605 17.9848 18.6529ZM12.5466 20.1217C12.7422 19.6187 13.2687 19.3179 13.8858 19.2894C13.8876 19.2894 13.8893 19.2894 13.891 19.2894C13.9038 19.2894 13.916 19.2894 13.9288 19.2871C14.2167 19.2801 14.5226 19.3313 14.8233 19.4497C15.1902 19.593 15.5078 19.8186 15.7411 20.1018C15.8706 20.258 16.1016 20.2796 16.2572 20.1496C16.4128 20.0197 16.4348 19.7889 16.3054 19.6315C15.9925 19.2527 15.5716 18.9519 15.0892 18.7631C14.8216 18.6582 14.5493 18.5946 14.2817 18.5673C14.3073 18.1948 14.3363 17.8253 14.3682 17.461C15.9333 18.8371 18.92 21.334 22.565 23.7515C22.6318 24.1275 22.695 24.5244 22.7508 24.9329C23.0654 27.2392 23.0103 28.9982 22.5958 30.0852C20.7434 29.8858 16.4795 26.5812 14.1592 24.6235C14.1424 24.061 14.1343 23.5464 14.1337 23.0207C14.2922 23.0469 14.4512 23.0603 14.608 23.0603C15.0492 23.0603 15.4747 22.9577 15.8387 22.7572C16.0163 22.6581 16.0807 22.4349 15.9826 22.2566C15.8851 22.0788 15.6622 22.0141 15.4851 22.112C15.0364 22.3603 14.4449 22.3918 13.8812 22.203H13.88C13.8434 22.1907 13.8069 22.1767 13.7703 22.1633C13.2896 21.9745 12.899 21.6498 12.6697 21.2471C12.4549 20.8706 12.4113 20.4714 12.5466 20.1217ZM13.4232 25.4878V24.9609C13.4667 24.997 13.512 25.0361 13.559 25.0757C13.5631 25.0792 13.5671 25.0827 13.5712 25.0862C14.3038 25.7052 15.4904 26.6832 16.7826 27.6478C19.2062 29.4569 21.0307 30.5007 22.2243 30.7647C21.9711 31.0847 21.6536 31.2724 21.2583 31.3342C18.2083 29.8928 16.2694 28.4258 15.1577 27.4181C14.0896 26.4477 13.5741 25.7192 13.4232 25.4878ZM14.8663 33.1602C15.3928 33.5996 16.036 34.063 16.7988 34.5537C18.2054 35.4589 19.7159 36.2533 20.7045 36.7475L20.0816 36.8897C20.0642 36.8775 20.0462 36.8647 20.0264 36.8553C17.6568 35.6541 15.9037 34.3841 14.7926 33.4038C14.5314 33.173 14.3055 32.9585 14.1157 32.765C13.7099 32.3506 13.4679 32.0318 13.3959 31.8552C13.3129 31.6524 13.2798 31.4775 13.2769 31.3359C13.4696 31.7334 13.7935 32.1554 14.2498 32.6042C14.4338 32.786 14.6393 32.9702 14.8663 33.1602ZM13.0209 36.1379C12.9442 36.4817 12.8711 36.8268 12.8026 37.1695C12.7155 36.9987 12.6064 36.8291 12.4752 36.663C12.6522 36.4782 12.8345 36.3034 13.0209 36.1379ZM14.5697 34.1883C14.6579 34.2623 14.7479 34.3375 14.8408 34.4127C15.6889 35.1039 17.0676 36.1064 18.9862 37.1403L13.6287 38.3666C13.934 36.6473 14.2962 35.1843 14.5697 34.1883ZM20.2308 49.0493C20.2714 48.8774 20.3138 48.6996 20.3417 48.495L20.344 48.4747C20.4038 47.8429 20.2476 47.3171 19.8807 46.9115C19.5661 46.5641 19.1087 46.331 18.5183 46.215C18.5258 46.1544 18.5334 46.0979 18.5403 46.0454C19.2695 46.067 20.0212 46.0775 20.7794 46.0775C21.9021 46.0775 23.0968 46.0547 24.3321 46.0081C24.6357 46.3939 25.0246 46.6591 25.4408 46.7629L25.4768 46.7722H26.8364C27.5185 46.7722 28.1756 46.3986 28.6191 45.7657C29.0261 45.7371 29.4382 45.7144 29.8063 45.694L29.8399 45.6928C29.8341 45.8968 29.8307 46.099 29.8295 46.3007C29.689 46.3129 29.5694 46.3234 29.4765 46.3316L29.3773 46.3421C29.0325 46.3776 28.6035 46.4231 28.3097 46.7874C28.0961 47.0537 28.0212 47.4034 28.0735 47.8848C28.1541 48.7008 28.2105 50.8421 27.9753 52.0934C27.9504 52.2298 27.9237 52.3715 27.8958 52.516C27.7582 53.2422 27.6317 53.9434 27.5916 54.5274C26.8184 54.5204 26.0515 54.518 25.3073 54.518C23.9141 54.518 22.5186 54.5285 21.1544 54.5478C21.0301 53.9946 20.8275 53.4858 20.6302 52.9904C20.503 52.6704 20.3713 52.3406 20.2703 52.0159C19.9922 50.9732 19.9817 50.1136 20.2308 49.0493ZM28.0676 44.5971C28.0676 44.5982 28.0665 44.5982 28.0665 44.5982C28.0235 44.6577 27.9504 44.7393 27.8529 44.7952C27.8476 44.7987 27.8418 44.8022 27.8366 44.8046C27.8279 44.8104 27.8198 44.8139 27.8111 44.818C27.7965 44.825 27.7815 44.8302 27.7658 44.836C27.7606 44.8372 27.7553 44.8395 27.7501 44.8407C27.7321 44.8465 27.7141 44.8512 27.6961 44.8529C27.6926 44.8541 27.6892 44.8541 27.6857 44.8553C27.6654 44.8576 27.6456 44.8599 27.6253 44.8599C27.6044 44.8599 27.5835 44.8576 27.5626 44.8553C27.5481 44.8529 27.5336 44.8483 27.5191 44.8448C27.5127 44.8436 27.5069 44.8424 27.5005 44.8401C27.4825 44.8343 27.4645 44.8279 27.4465 44.8197C27.4453 44.8197 27.4436 44.8186 27.4419 44.8186C27.205 44.709 27.0181 44.3995 26.9699 44.0341C26.9699 44.0329 26.9693 44.0306 26.9693 44.0294C26.9653 44.0008 26.9629 43.9723 26.9606 43.9431C26.9583 43.9111 26.9571 43.8796 26.9571 43.8476C26.9571 43.8143 26.9583 43.7829 26.9606 43.7508C26.9624 43.7222 26.9653 43.6925 26.9693 43.6645C26.9693 43.6634 26.9693 43.6622 26.9699 43.6599C27.0181 43.2944 27.205 42.985 27.4419 42.8766C27.4436 42.8754 27.4453 42.8754 27.4465 42.8742C27.4645 42.8661 27.4825 42.8597 27.5005 42.8538C27.5069 42.8527 27.5127 42.8515 27.5191 42.8492C27.5336 42.8457 27.5481 42.8422 27.5626 42.8398C27.5835 42.8363 27.6044 42.8352 27.6253 42.8352C27.6456 42.8352 27.6659 42.8363 27.6857 42.8398C27.6892 42.8398 27.6926 42.841 27.6961 42.841C27.7141 42.8445 27.7321 42.8492 27.7501 42.8532C27.7553 42.8556 27.7611 42.8567 27.7658 42.8591C27.7809 42.8649 27.796 42.8707 27.8111 42.8771C27.8198 42.8806 27.8279 42.8853 27.8366 42.8894C27.8424 42.8929 27.8482 42.8964 27.8534 42.8999C27.9504 42.9558 28.0229 43.0374 28.0665 43.0957C28.0671 43.0969 28.0676 43.0969 28.0676 43.0969C28.2046 43.2845 28.2935 43.5532 28.2935 43.847C28.2935 44.1407 28.2052 44.4106 28.0676 44.5971ZM25.9981 43.8481C25.9981 44.7818 26.5874 45.5465 27.3263 45.5931C27.1719 45.6841 27.0053 45.733 26.8358 45.733C26.1061 45.733 25.5128 44.8873 25.5128 43.8481C25.5128 42.8089 26.1061 41.9633 26.8358 41.9633C27.0053 41.9633 27.1719 42.0122 27.3263 42.102C26.5874 42.1498 25.9981 42.9144 25.9981 43.8481ZM25.6945 41.2948C25.4182 41.3542 25.1465 41.4597 24.9683 41.6456C24.4685 42.1661 24.0169 42.8258 24.0169 44.1104C24.0169 44.4246 24.0616 44.7136 24.1388 44.9765C19.7821 45.1339 16.0442 44.9969 13.0122 44.5656C13.0139 44.3913 13.0174 44.2159 13.0226 44.0387C13.2548 44.1308 13.4934 44.1821 13.725 44.1821C13.8284 44.1821 13.9305 44.1716 14.0292 44.1524C14.5197 44.0568 14.9743 43.682 15.2158 43.2146L25.6951 40.8116V41.2948H25.6945ZM14.5766 45.7983C14.9273 45.8338 15.286 45.8653 15.6512 45.8939C15.6366 46.0489 15.6227 46.2034 15.6099 46.3572C15.5832 46.3631 15.5211 46.3776 15.5211 46.3776C15.3539 46.4196 15.0219 46.5379 14.6689 46.7238C14.6695 46.7203 14.6701 46.7168 14.6707 46.7145C14.7398 46.4027 14.702 46.0804 14.5766 45.7983ZM29.7488 44.6577C29.4516 44.6734 29.1474 44.6909 28.8426 44.7101C28.9587 44.4549 29.0261 44.1617 29.0261 43.8481C29.0261 43.4168 28.9001 43.0217 28.6917 42.7169C28.3533 41.8106 27.6282 41.2266 26.8352 41.2266C26.7911 41.2266 26.7482 41.2289 26.704 41.2324V40.5802L34.2071 38.8603C34.4602 40.2311 34.5873 41.6141 34.5862 42.9774C34.5862 42.9955 34.5873 43.0135 34.5902 43.0322C34.596 43.0718 34.722 44.0067 33.489 44.266C32.292 44.5172 31.0567 44.586 29.7488 44.6577ZM24.7123 10.7305C24.7123 11.3302 24.1991 11.8163 23.5658 11.8163C22.9325 11.8163 22.4187 11.3302 22.4187 10.7305C22.4187 10.1319 22.9319 9.64585 23.5658 9.64585C24.1986 9.64527 24.7123 10.1314 24.7123 10.7305Z" fill="#2D2D2D"/>
</svg>
