<svg width="86" height="36" viewBox="0 0 86 36" fill="none" xmlns="http://www.w3.org/2000/svg">
<path d="M4.5264 17.2406L3.33398 17.42L4.5264 17.1445V17.2406ZM4.5264 14.9941V12.4892H10.0712L10.2976 7.69532H4.5264V4.79391H10.0712L10.2976 0H4.5264C1.5088 0 0 1.59757 0 4.79391V16.1441L4.5264 14.9941ZM15.8419 12.8669V0H11.3155V12.8669C11.3155 16.0632 12.8243 17.6608 15.8419 17.6608H20.4812L20.2548 12.8669H15.8419ZM32.8156 4.79391V12.8669C32.8156 16.0632 31.3068 17.6608 28.2892 17.6608H26.026C23.0084 17.6608 21.5001 16.0632 21.5001 12.8669V4.79391C21.5001 1.59757 23.0089 0 26.026 0H28.2892C31.3068 0 32.8156 1.59757 32.8156 4.79391ZM28.2892 4.79391H26.026V12.8669H28.2892V4.79391ZM45.2629 4.79391V12.8669C45.2629 16.0632 43.7536 17.6608 40.7365 17.6608H38.4733C35.4563 17.6608 33.9469 16.0632 33.9469 12.8669V4.79391C33.9469 1.59757 35.4563 0 38.4733 0H40.7365C43.7541 0 45.2629 1.59757 45.2629 4.79391ZM40.7365 4.79391H38.4733V12.8669H40.7365V4.79391ZM57.7108 4.79391C57.7108 6.58486 57.3257 7.92276 56.5566 8.80516C57.3257 9.64621 57.7108 10.9172 57.7108 12.6157V17.6614H53.1844V11.2274H50.9212V17.6614H46.3948V0H53.1844C56.2015 0 57.7108 1.59757 57.7108 4.79391ZM53.1844 4.79391H50.9212V6.43283H53.1844V4.79391ZM58.8421 17.6608H63.3685V0H58.8421V17.6608ZM70.1576 0H69.0263C66.0092 0 64.4999 1.59757 64.4999 4.79391V17.6608H69.0263V4.79391H70.1576V17.6608H74.6845V4.79391C74.6845 1.59757 73.1752 0 70.1576 0ZM81.4736 6.55993V12.8669H80.3423V4.79391H84.7552L84.9816 0H80.3423C77.3247 0 75.8159 1.59757 75.8159 4.79391V12.8669C75.8159 16.0632 77.3247 17.6608 80.3423 17.6608H86V6.30695L81.4736 6.55993Z" fill="#0B0B0B"/>
<path d="M15.9924 19.4697H20.2292V31.5138C20.2292 34.5046 18.8169 36 15.9924 36H14.9336C12.1091 36 10.6969 34.5046 10.6969 31.5138V19.4697H14.9336V31.5138H15.9924V19.4697ZM4.34257 23.9559V25.4915H5.40135C8.22531 25.4915 9.6381 26.9869 9.6381 29.9777V31.5132C9.6381 34.504 8.22585 35.9994 5.40135 35.9994H0L0.211643 31.5132H5.40135V29.9777H4.34257C1.51807 29.9777 0.105823 28.4823 0.105823 25.4915V23.9559C0.105823 23.9511 0.105823 23.9462 0.105823 23.9419C0.162554 23.9158 0.218737 23.8896 0.274376 23.8635C0.332743 23.8373 0.391109 23.81 0.449475 23.7826C0.57439 23.7242 0.705304 23.6756 0.83131 23.6269C0.953498 23.5807 1.0795 23.5321 1.20115 23.4773C1.53444 23.3253 1.84536 23.1447 2.1061 22.989C2.12138 22.9793 2.13883 22.9701 2.15792 22.958C2.30956 22.871 2.56267 22.7238 2.57303 22.5219C2.57412 22.4934 2.57249 22.4684 2.56649 22.4447C2.5583 22.4125 2.54849 22.3809 2.53485 22.3425C2.42139 22.0233 2.1721 21.8402 1.85082 21.8402C1.67299 21.8402 1.48043 21.8986 1.30915 22.0044C1.08823 22.14 0.915859 22.3407 0.749487 22.5341C0.664392 22.6326 0.576026 22.736 0.481657 22.8284C0.47293 22.8382 0.462021 22.8424 0.450565 22.8424C0.43311 22.8424 0.415654 22.8303 0.406926 22.8151C0.402017 22.8041 0.398201 22.7877 0.409656 22.7676C0.451658 22.6916 0.495296 22.6168 0.540025 22.5457L0.551478 22.5268C0.551478 22.5268 0.513296 22.5268 0.504022 22.5256C0.492022 22.5256 0.48002 22.5256 0.467474 22.5256C0.440746 22.5256 0.420562 22.5268 0.400925 22.5317C0.333285 22.5493 0.275467 22.573 0.220919 22.6016C0.230192 22.5505 0.239466 22.5007 0.250376 22.452C0.325652 22.4161 0.409652 22.3869 0.484383 22.3869C0.532931 22.3869 0.572753 22.3997 0.602754 22.4246L0.611481 22.4319L0.618028 22.4222C0.855857 22.0646 1.10078 21.8262 1.38988 21.6706C1.54644 21.586 1.70735 21.5435 1.86773 21.5435C2.19883 21.5435 2.50212 21.7332 2.70013 22.0634C2.70558 22.0731 2.71104 22.0823 2.71595 22.0908L2.72468 22.1072L2.73395 22.092C2.76177 22.0433 2.78795 21.9923 2.81414 21.9412C2.84686 21.8791 2.88014 21.8141 2.91723 21.752C3.02251 21.5751 3.17797 21.4358 3.32743 21.3008L3.3978 21.2376C3.70818 20.9597 4.17784 20.5394 3.99946 20.0341C3.90455 19.7671 3.65854 19.5841 3.33998 19.5403C3.65145 19.4928 3.98583 19.4691 4.34203 19.4691H9.74338L9.53174 23.9553L4.34257 23.9559ZM4.34421 20.6884C4.41621 20.6884 4.48931 20.7048 4.56622 20.7395C4.59022 20.7517 4.61586 20.7632 4.64204 20.7766C4.73477 20.8228 4.84005 20.8763 4.94097 20.8763C4.99551 20.8763 5.04243 20.8611 5.08552 20.8313C5.21098 20.7425 5.29825 20.6185 5.33098 20.4811C5.41117 20.1435 5.26335 19.8158 4.90442 19.5342L4.9006 19.5305L4.87933 19.5354L4.87823 19.5439C4.86296 19.6771 4.81932 19.7817 4.74841 19.8577C4.67695 19.9337 4.59131 19.9909 4.50895 20.0456C4.43094 20.0967 4.35021 20.1502 4.28148 20.2202L4.27766 20.2238V20.2299C4.27875 20.3844 4.24221 20.5425 4.16802 20.6988L4.15656 20.7237L4.18002 20.7164C4.23839 20.6975 4.29184 20.6884 4.34421 20.6884ZM31.879 23.9559C31.879 25.6332 31.519 26.8847 30.7989 27.7117C31.519 28.4981 31.879 29.687 31.879 31.2772V36H27.6423V29.9783H25.5242V36H21.2874V19.4697H27.6417C30.4668 19.4697 31.879 20.9651 31.879 23.9559ZM27.6428 23.9559H25.5247V25.4915H27.6428V23.9559ZM64.7121 23.9559V31.5138C64.7121 34.5046 63.2998 36 60.4753 36H58.3567C55.5322 36 54.1205 34.5046 54.1205 31.5138V23.9559C54.1205 20.9651 55.5322 19.4697 58.3567 19.4697H60.4753C63.2998 19.4697 64.7121 20.9651 64.7121 23.9559ZM60.4753 23.9559H58.3567V31.5138H60.4753V23.9559ZM71.0664 19.4697H70.0076C67.1831 19.4697 65.7708 20.9651 65.7708 23.9559V36H70.0076V23.9559H71.0664V36H75.3031V23.9559C75.3031 20.9651 73.8909 19.4697 71.0664 19.4697ZM38.2344 31.5132H37.1751V23.9559H41.3055L41.5177 19.4697H37.1751C34.3506 19.4697 32.9383 20.9651 32.9383 23.9559V31.5138C32.9383 34.5046 34.3506 36 37.1751 36H42.4706V25.3729L38.2344 25.6094V31.5132ZM81.6574 25.4915H80.5986V23.9559H85.7884L86 19.4697H80.5986C77.7741 19.4697 76.3619 20.9651 76.3619 23.9559V25.4915C76.3619 28.4823 77.7741 29.9777 80.5986 29.9777H81.6574V31.5132H76.4677L76.2555 35.9994H81.6569C84.4814 35.9994 85.8936 34.504 85.8936 31.5132V29.9777C85.8942 26.9869 84.4819 25.4915 81.6574 25.4915ZM52.9558 29.9777L53.1675 25.4915H47.7661V23.9559H51.8965L52.1087 19.4697H47.7661C44.9416 19.4697 43.5294 20.9651 43.5294 23.9559V31.5138C43.5294 34.5046 44.9416 36 47.7661 36H52.9564L53.168 31.5138H47.7667V29.9783L52.9558 29.9777Z" fill="#00745F"/>
</svg>
